HIERARCHY
ROOT Hips
{
  OFFSET 5.72205e-005 65.662 3.42586
  CHANNELS 6 Xposition Yposition Zposition Zrotation Xrotation Yrotation
  JOINT Chest
  {
    OFFSET 0 8.7983 -4.7612
    CHANNELS 3 Zrotation Xrotation Yrotation
    JOINT Chest2
    {
      OFFSET 0 8.0291 0.4195
      CHANNELS 3 Zrotation Xrotation Yrotation
      JOINT Chest3
      {
        OFFSET 0 9.9351 -2.2114
        CHANNELS 3 Zrotation Xrotation Yrotation
        JOINT Neck
        {
          OFFSET 0 22.3885 -0.4656
          CHANNELS 3 Zrotation Xrotation Yrotation
          JOINT Head
          {
            OFFSET -0.0001 12.643 3.4389
            CHANNELS 3 Zrotation Xrotation Yrotation
            End Site
            {
              OFFSET 0.0001 17.6655 0.5274
            }
          }
        }
        JOINT LeftCollar
        {
          OFFSET 2.2603 21.606 7.4023
          CHANNELS 3 Zrotation Xrotation Yrotation
          JOINT LeftShoulder
          {
            OFFSET 13.5163 -1.1332 -5.0146
            CHANNELS 3 Zrotation Xrotation Yrotation
            JOINT LeftElbow
            {
              OFFSET -0.0995 -28.05 -0.2431
              CHANNELS 3 Zrotation Xrotation Yrotation
              JOINT LeftWrist
              {
                OFFSET 0.0679 -23.3996 -0.1402
                CHANNELS 3 Zrotation Xrotation Yrotation
                JOINT LeftFinger1
                {
                  OFFSET 0.7932 -9.069 2.5189
                  CHANNELS 3 Zrotation Xrotation Yrotation
                  JOINT LeftFinger11
                  {
                    OFFSET -0.8272 -3.3923 0.5977
                    CHANNELS 3 Zrotation Xrotation Yrotation
                    JOINT LeftFinger12
                    {
                      OFFSET -0.5649 -2.3158 0.4082
                      CHANNELS 3 Zrotation Xrotation Yrotation
                      End Site
                      {
                        OFFSET -0.4919 -1.6479 0.2673
                      }
                    }
                  }
                }
                JOINT LeftFinger2
                {
                  OFFSET 0.9159 -9.2044 0.2193
                  CHANNELS 3 Zrotation Xrotation Yrotation
                  JOINT LeftFinger21
                  {
                    OFFSET 0.0117 -4.1944 -0.0248
                    CHANNELS 3 Zrotation Xrotation Yrotation
                    JOINT LeftFinger22
                    {
                      OFFSET 0.0071 -2.3249 -0.0142
                      CHANNELS 3 Zrotation Xrotation Yrotation
                      End Site
                      {
                        OFFSET -0.1475 -2.0882 0.0028
                      }
                    }
                  }
                }
                JOINT LeftFinger3
                {
                  OFFSET 0.6113 -8.7231 -2.0637
                  CHANNELS 3 Zrotation Xrotation Yrotation
                  JOINT LeftFinger31
                  {
                    OFFSET -0.1927 -3.8059 -0.2383
                    CHANNELS 3 Zrotation Xrotation Yrotation
                    JOINT LeftFinger32
                    {
                      OFFSET -0.1091 -2.1688 -0.1362
                      CHANNELS 3 Zrotation Xrotation Yrotation
                      End Site
                      {
                        OFFSET -0.2358 -1.9176 -0.0906
                      }
                    }
                  }
                }
                JOINT LeftFinger4
                {
                  OFFSET -0.6151 -8.0947 -3.5641
                  CHANNELS 3 Zrotation Xrotation Yrotation
                  JOINT LeftFinger41
                  {
                    OFFSET -0.4882 -2.341 -0.6462
                    CHANNELS 3 Zrotation Xrotation Yrotation
                    JOINT LeftFinger42
                    {
                      OFFSET -0.3575 -1.7167 -0.4742
                      CHANNELS 3 Zrotation Xrotation Yrotation
                      End Site
                      {
                        OFFSET -0.4187 -1.5237 -0.3496
                      }
                    }
                  }
                }
                JOINT LeftFinger0
                {
                  OFFSET -1.42 -1.8761 1.4223
                  CHANNELS 3 Zrotation Xrotation Yrotation
                  JOINT LeftFinger01
                  {
                    OFFSET -1.1471 -3.4929 2.6334
                    CHANNELS 3 Zrotation Xrotation Yrotation
                    JOINT LeftFinger02
                    {
                      OFFSET -0.823 -2.3 1.6571
                      CHANNELS 3 Zrotation Xrotation Yrotation
                      End Site
                      {
                        OFFSET -0.5822 -1.6914 1.1582
                      }
                    }
                  }
                }
              }
            }
          }
        }
        JOINT RightCollar
        {
          OFFSET -2.2603 21.606 7.4023
          CHANNELS 3 Zrotation Xrotation Yrotation
          JOINT RightShoulder
          {
            OFFSET -13.5187 -1.1334 -5.0155
            CHANNELS 3 Zrotation Xrotation Yrotation
            JOINT RightElbow
            {
              OFFSET 0.0994 -28.0499 -0.2431
              CHANNELS 3 Zrotation Xrotation Yrotation
              JOINT RightWrist
              {
                OFFSET -0.0679 -23.3996 -0.1402
                CHANNELS 3 Zrotation Xrotation Yrotation
                JOINT RightFinger1
                {
                  OFFSET -0.7932 -9.0691 2.5189
                  CHANNELS 3 Zrotation Xrotation Yrotation
                  JOINT RightFinger11
                  {
                    OFFSET 0.8272 -3.3923 0.5977
                    CHANNELS 3 Zrotation Xrotation Yrotation
                    JOINT RightFinger12
                    {
                      OFFSET 0.565 -2.3158 0.4082
                      CHANNELS 3 Zrotation Xrotation Yrotation
                      End Site
                      {
                        OFFSET 0.4919 -1.6479 0.2673
                      }
                    }
                  }
                }
                JOINT RightFinger2
                {
                  OFFSET -0.916 -9.2044 0.2193
                  CHANNELS 3 Zrotation Xrotation Yrotation
                  JOINT RightFinger21
                  {
                    OFFSET -0.0117 -4.1944 -0.0248
                    CHANNELS 3 Zrotation Xrotation Yrotation
                    JOINT RightFinger22
                    {
                      OFFSET -0.0071 -2.3249 -0.0142
                      CHANNELS 3 Zrotation Xrotation Yrotation
                      End Site
                      {
                        OFFSET 0.1475 -2.0882 0.0028
                      }
                    }
                  }
                }
                JOINT RightFinger3
                {
                  OFFSET -0.6113 -8.7231 -2.0637
                  CHANNELS 3 Zrotation Xrotation Yrotation
                  JOINT RightFinger31
                  {
                    OFFSET 0.1927 -3.8059 -0.2383
                    CHANNELS 3 Zrotation Xrotation Yrotation
                    JOINT RightFinger32
                    {
                      OFFSET 0.1091 -2.1688 -0.1362
                      CHANNELS 3 Zrotation Xrotation Yrotation
                      End Site
                      {
                        OFFSET 0.2358 -1.9176 -0.0906
                      }
                    }
                  }
                }
                JOINT RightFinger4
                {
                  OFFSET 0.6151 -8.0947 -3.564
                  CHANNELS 3 Zrotation Xrotation Yrotation
                  JOINT RightFinger41
                  {
                    OFFSET 0.4882 -2.341 -0.6462
                    CHANNELS 3 Zrotation Xrotation Yrotation
                    JOINT RightFinger42
                    {
                      OFFSET 0.3574 -1.7166 -0.4742
                      CHANNELS 3 Zrotation Xrotation Yrotation
                      End Site
                      {
                        OFFSET 0.4187 -1.5237 -0.3496
                      }
                    }
                  }
                }
                JOINT RightFinger0
                {
                  OFFSET 1.4199 -1.8761 1.4221
                  CHANNELS 3 Zrotation Xrotation Yrotation
                  JOINT RightFinger01
                  {
                    OFFSET 1.1472 -3.4929 2.6336
                    CHANNELS 3 Zrotation Xrotation Yrotation
                    JOINT RightFinger02
                    {
                      OFFSET 0.8229 -2.3 1.6571
                      CHANNELS 3 Zrotation Xrotation Yrotation
                      End Site
                      {
                        OFFSET 0.5822 -1.6914 1.1582
                      }
                    }
                  }
                }
              }
            }
          }
        }
      }
    }
  }
  JOINT RightHip
  {
    OFFSET -9.412 3.9771 -0.7758
    CHANNELS 3 Zrotation Xrotation Yrotation
    JOINT RightKnee
    {
      OFFSET -0.7531 -40.938 0
      CHANNELS 3 Zrotation Xrotation Yrotation
      JOINT RightAnkle
      {
        OFFSET 0 -40.1986 0
        CHANNELS 3 Zrotation Xrotation Yrotation
        JOINT RightToe
        {
          OFFSET 0 -4.4182 9.239
          CHANNELS 3 Zrotation Xrotation Yrotation
          End Site
          {
            OFFSET 0 0 6.1981
          }
        }
      }
    }
  }
  JOINT LeftHip
  {
    OFFSET 9.4119 3.9773 -0.7758
    CHANNELS 3 Zrotation Xrotation Yrotation
    JOINT LeftKnee
    {
      OFFSET 0.7532 -40.9383 0
      CHANNELS 3 Zrotation Xrotation Yrotation
      JOINT LeftAnkle
      {
        OFFSET 0 -40.1986 0
        CHANNELS 3 Zrotation Xrotation Yrotation
        JOINT LeftToe
        {
          OFFSET 0 -4.4182 9.239
          CHANNELS 3 Zrotation Xrotation Yrotation
          End Site
          {
            OFFSET 0 0 6.1981
          }
        }
      }
    }
  }
}
MOTION
Frames:	6
Frame Time:	0.0333333
38.2504 42.8673 18.7914 -179.999 58.9984 12.9916 -0.0579726 7.86185 -2.86082 0.2888 15.7166 -5.79665 0.288803 15.7167 -5.79666 -19.0664 13.2571 4.53186 -1.42605 -1.47664 10.0576 -4.28046 1.47533 -10.7454 36.6984 11.9321 -34.7151 -1.46468 -17.8274 -36.4583 3.40194 3.69488 5.81634 1.59028e-015 3.18055e-015 9.93923e-016 1.10348e-032 3.18055e-015 -1.98785e-016 1.59028e-015 3.18055e-015 -1.59028e-015 1.59028e-015 3.18055e-015 9.93923e-016 -0.0127968 0.00232425 8.86028e-005 -3.97252e-031 9.54166e-015 2.38542e-015 1.59028e-015 3.18055e-015 9.93923e-016 -0.0160535 0.00299271 0.000858637 7.95139e-016 -3.18055e-015 -9.93923e-016 1.59028e-015 3.18055e-015 9.93923e-016 -0.0126169 0.00313349 0.00283524 -7.95139e-016 6.36111e-015 -3.97569e-016 1.59028e-015 3.18055e-015 9.93923e-016 1.10348e-032 3.18055e-015 -1.98785e-016 1.59028e-015 3.18055e-015 -1.59028e-015 18.4904 -0.411559 8.23404 -54.0068 10.2106 40.7493 -145.093 -31.9041 -168.402 46.6172 8.91934 -10.6237 2.68359e-015 -7.95139e-016 -7.95139e-016 2.5842e-015 0 -0 5.56597e-015 1.59028e-015 -2.38542e-015 2.68359e-015 -7.95139e-016 -7.95139e-016 0.012989 0.0023224 -8.51771e-005 1.09332e-015 1.59028e-015 -2.38542e-015 2.68359e-015 -7.95139e-016 -7.95139e-016 0.0163247 0.00303739 -0.000875224 8.61112e-006 -2.29068e-007 -1.54e-006 2.68359e-015 -7.95139e-016 -7.95139e-016 0.0145519 0.0036767 -0.00325683 1.28602e-006 -1.23176e-006 2.09232e-006 2.68359e-015 -7.95139e-016 -7.95139e-016 2.5842e-015 0 -0 5.56597e-015 1.59028e-015 -2.38542e-015 55.1325 -74.2939 37.646 -2.06419 36.9859 42.322 -26.4807 -2.48782 -8.42789 -1.68967e-015 1.98785e-016 -0 54.0225 -80.6438 84.8544 2.04801 37.8039 -42.3217 24.8609 -2.88856 7.60655 7.88422e-009 -3.39083e-010 -2.13198e-007 
38.2512 42.8684 18.7826 -179.999 58.9984 12.9916 -0.0713153 7.77555 -2.86206 0.257211 15.5448 -5.79555 0.257212 15.5449 -5.79556 -18.9711 13.2644 4.50999 -1.42763 -1.21778 9.28158 -4.51467 1.71945 -10.4414 36.8329 11.9409 -34.7331 -1.46457 -17.8275 -36.4582 3.33505 3.67935 5.51432 -6.62086e-032 3.18055e-015 1.19271e-015 -7.95139e-016 3.18055e-015 1.59028e-015 1.59028e-015 -3.18055e-015 9.93923e-016 -6.62086e-032 3.18055e-015 1.19271e-015 -0.0128476 0.00232936 9.17667e-005 -1.59028e-015 3.18055e-015 -9.93923e-016 -6.62086e-032 3.18055e-015 1.19271e-015 -0.0160547 0.00298932 0.000860755 1.59028e-015 -6.36111e-015 -0 -6.62086e-032 3.18055e-015 1.19271e-015 -0.0125659 0.00310624 0.00282498 3.18055e-015 3.18055e-015 -1.78906e-015 -6.62086e-032 3.18055e-015 1.19271e-015 -7.95139e-016 3.18055e-015 1.59028e-015 1.59028e-015 -3.18055e-015 9.93923e-016 18.4904 -0.411573 8.23406 -54.0068 10.2106 40.7493 -145.134 -31.7247 -168.555 46.6172 8.91924 -10.6236 -3.40065e-008 8.651e-007 -4.22402e-007 1.35174e-014 -2.38542e-015 -7.95139e-016 -1.22739e-006 1.57928e-006 -1.21154e-006 -3.40065e-008 8.651e-007 -4.22402e-007 0.0129569 0.00231617 -9.007e-005 -1.22657e-006 -1.26733e-007 -1.21159e-006 -3.40065e-008 8.651e-007 -4.22402e-007 0.0163458 0.00303886 -0.000873989 -1.69847e-007 8.79888e-007 -2.11202e-006 -3.40065e-008 8.651e-007 -4.22402e-007 0.0146028 0.00368474 -0.00327247 3.18055e-015 -8.62631e-007 1.59028e-015 -3.40065e-008 8.651e-007 -4.22402e-007 1.35174e-014 -2.38542e-015 -7.95139e-016 -1.22739e-006 1.57928e-006 -1.21154e-006 54.5442 -74.1771 37.0355 -2.0634 36.9786 42.3221 -26.4775 -2.48499 -8.42677 7.70291e-016 5.02321e-007 -9.54166e-015 52.9201 -80.5086 83.7369 2.04788 37.8033 -42.3217 24.8612 -2.89025 7.60693 -8.69587e-009 2.71406e-010 2.13172e-007 
38.2521 42.8694 18.7738 -179.999 58.9984 12.9916 -0.0846552 7.68929 -2.86317 0.2256 15.3731 -5.79422 0.225601 15.3731 -5.79423 -18.8758 13.2717 4.48812 -1.42571 -0.95895 8.50558 -4.7502 1.96235 -10.1363 36.9678 11.9493 -34.7511 -1.46496 -17.8274 -36.4583 3.26806 3.66416 5.21229 -3.83758e-006 -5.48521e-006 -5.40456e-006 -7.95139e-016 0 2.18663e-015 -5.03533e-007 1.6451e-005 7.50879e-006 -3.83758e-006 -5.48521e-006 -5.40456e-006 -0.0128143 0.00232531 9.05544e-005 -3.11251e-006 3.77585e-006 -4.77727e-007 -3.83758e-006 -5.48521e-006 -5.40456e-006 -0.0160457 0.0030047 0.000859265 -8.8901e-007 8.93548e-006 4.38729e-006 -3.83758e-006 -5.48521e-006 -5.40456e-006 -0.01258 0.00312266 0.00282362 1.61292e-006 1.15262e-006 5.39784e-007 -3.83758e-006 -5.48521e-006 -5.40456e-006 -7.95139e-016 0 2.18663e-015 -5.03533e-007 1.6451e-005 7.50879e-006 18.4904 -0.411577 8.23405 -54.0068 10.2105 40.7493 -145.175 -31.5452 -168.708 46.6171 8.91914 -10.6236 1.73937e-014 -8.63843e-007 1.59028e-015 6.06293e-015 8.63843e-007 3.18055e-015 1.08338e-014 -8.63843e-007 3.18055e-015 1.73937e-014 -8.63843e-007 1.59028e-015 0.0130033 0.00232831 -8.67757e-005 1.22961e-006 -1.20053e-006 1.17699e-006 1.73937e-014 -8.63843e-007 1.59028e-015 0.016344 0.00303726 -0.000874741 -9.37868e-007 3.90979e-007 2.1971e-006 1.73937e-014 -8.63843e-007 1.59028e-015 0.0146007 0.00368238 -0.00326687 2.45897e-006 -2.13533e-007 2.35442e-006 1.73937e-014 -8.63843e-007 1.59028e-015 6.06293e-015 8.63843e-007 3.18055e-015 1.08338e-014 -8.63843e-007 3.18055e-015 53.9671 -74.0588 36.436 -2.06309 36.9717 42.3223 -26.4744 -2.48224 -8.42563 -3.21783e-015 -1.49089e-015 -6.36111e-015 51.8521 -80.37 82.6539 2.04785 37.8031 -42.3216 24.8616 -2.89199 7.60736 -2.94595e-006 -2.2184e-008 -2.01384e-007 
38.2529 42.8705 18.7649 -179.999 58.9984 12.9916 -0.0980119 7.60307 -2.86414 0.193978 15.2014 -5.79265 0.193978 15.2015 -5.79267 -18.7805 13.279 4.46623 -1.42029 -0.700187 7.72969 -4.98703 2.20398 -9.83022 37.1025 11.9579 -34.7692 -1.465 -17.8274 -36.4583 3.20103 3.6493 4.91027 -4.95427e-006 2.9337e-006 -2.21463e-006 1.17907e-005 3.8833e-007 -3.74634e-006 -9.97683e-007 8.22723e-006 3.78689e-006 -4.95427e-006 2.9337e-006 -2.21463e-006 -0.0128172 0.00233006 8.48531e-005 -1.07931e-005 1.69442e-005 -4.09866e-008 -4.95427e-006 2.9337e-006 -2.21463e-006 -0.0160532 0.00301594 0.000861136 3.8355e-006 5.39154e-006 -5.83231e-006 -4.95427e-006 2.9337e-006 -2.21463e-006 -0.0126129 0.00311855 0.0028319 7.06296e-006 7.11139e-006 -4.7569e-006 -4.95427e-006 2.9337e-006 -2.21463e-006 1.17907e-005 3.8833e-007 -3.74634e-006 -9.97683e-007 8.22723e-006 3.78689e-006 18.4904 -0.41156 8.23404 -54.0068 10.2106 40.7493 -145.215 -31.3656 -168.86 46.6172 8.91902 -10.6236 1.56046e-014 1.59028e-015 -4.77083e-015 1.18277e-014 1.59028e-015 -1.59028e-015 1.45113e-014 1.59028e-015 -1.59028e-015 1.56046e-014 1.59028e-015 -4.77083e-015 0.0129774 0.00232426 -8.77346e-005 -1.78906e-015 0 1.59028e-015 1.56046e-014 1.59028e-015 -4.77083e-015 0.0163098 0.00303365 -0.000873474 -2.98177e-015 -7.95139e-016 3.18055e-015 1.56046e-014 1.59028e-015 -4.77083e-015 0.0145871 0.00367997 -0.00326234 -1.39149e-015 -7.95139e-016 4.77083e-015 1.56046e-014 1.59028e-015 -4.77083e-015 1.18277e-014 1.59028e-015 -1.59028e-015 1.45113e-014 1.59028e-015 -1.59028e-015 53.3967 -73.9388 35.8434 -2.06239 36.9645 42.3226 -26.4712 -2.47943 -8.42453 8.43385e-007 4.80089e-007 -2.96455e-006 50.8189 -80.2285 81.6056 2.04804 37.8036 -42.3216 24.8619 -2.89363 7.60773 1.14301e-015 0 -0 
38.2538 42.8715 18.7561 -179.999 58.9984 12.9916 -0.111374 7.51687 -2.86495 0.162341 15.0298 -5.79086 0.162347 15.0299 -5.79088 -18.6852 13.2862 4.44433 -1.41137 -0.441592 6.95398 -5.22516 2.44431 -9.52311 37.2369 11.9668 -34.7871 -1.46466 -17.8275 -36.4583 3.13389 3.63482 4.60823 -6.20415e-007 -4.33942e-006 -4.32377e-006 7.95139e-016 3.18055e-015 5.96354e-016 -4.41391e-032 3.18055e-015 7.95139e-016 -6.20415e-007 -4.33942e-006 -4.32377e-006 -0.0128149 0.00232732 9.43331e-005 -7.95139e-016 -1.59028e-014 1.59028e-015 -6.20415e-007 -4.33942e-006 -4.32377e-006 -0.0160431 0.00299 0.000857145 7.95139e-016 -6.36111e-015 -1.25234e-014 -6.20415e-007 -4.33942e-006 -4.32377e-006 -0.0125807 0.00312188 0.00282962 1.54487e-031 -3.18055e-015 2.78299e-015 -6.20415e-007 -4.33942e-006 -4.32377e-006 7.95139e-016 3.18055e-015 5.96354e-016 -4.41391e-032 3.18055e-015 7.95139e-016 18.4904 -0.411548 8.23403 -54.0068 10.2106 40.7493 -145.254 -31.186 -169.012 46.6172 8.91889 -10.6236 2.98177e-016 7.95139e-016 1.59028e-015 7.95139e-016 -2.38542e-015 3.18055e-015 8.94531e-016 -2.38542e-015 1.59028e-015 2.98177e-016 7.95139e-016 1.59028e-015 0.0129895 0.0023242 -8.64919e-005 7.95139e-016 2.38542e-015 -1.59028e-015 2.98177e-016 7.95139e-016 1.59028e-015 0.016297 0.0030322 -0.000871264 8.15017e-015 7.95139e-016 -0 2.98177e-016 7.95139e-016 1.59028e-015 0.0145695 0.0036781 -0.0032595 -8.94531e-016 -7.95139e-016 -4.77083e-015 2.98177e-016 7.95139e-016 1.59028e-015 7.95139e-016 -2.38542e-015 3.18055e-015 8.94531e-016 -2.38542e-015 1.59028e-015 52.8376 -73.8172 35.2619 -2.06221 36.9577 42.3227 -26.468 -2.47659 -8.42338 -8.4298e-007 2.55886e-008 6.93737e-008 49.8088 -80.0833 80.5806 2.04785 37.803 -42.3215 24.8623 -2.89534 7.60813 1.5417e-006 1.34879e-007 3.82125e-007 
38.2546 42.8724 18.7473 -179.999 58.9984 12.9916 -0.124747 7.43076 -2.86562 0.130712 14.8584 -5.78885 0.130711 14.8584 -5.78887 -18.5898 13.2934 4.42241 -1.39895 -0.183216 6.17849 -5.46457 2.68331 -9.215 37.3717 11.9754 -34.8052 -1.46468 -17.8275 -36.4583 3.06668 3.62072 4.30623 -3.45323e-006 -4.13946e-006 -2.26988e-006 3.18055e-015 -3.18055e-015 -1.03368e-014 5.2113e-006 -1.12681e-006 -6.51313e-006 -3.45323e-006 -4.13946e-006 -2.26988e-006 -0.0128138 0.00234028 8.63456e-005 -1.39424e-006 8.96699e-006 6.70217e-007 -3.45323e-006 -4.13946e-006 -2.26988e-006 -0.0160226 0.00299866 0.000862481 -3.12029e-006 7.09983e-006 -4.64783e-007 -3.45323e-006 -4.13946e-006 -2.26988e-006 -0.0126206 0.00314342 0.00283136 1.83639e-006 4.6242e-006 1.7371e-006 -3.45323e-006 -4.13946e-006 -2.26988e-006 3.18055e-015 -3.18055e-015 -1.03368e-014 5.2113e-006 -1.12681e-006 -6.51313e-006 18.4904 -0.411533 8.23403 -54.0068 10.2105 40.7493 -145.293 -31.0056 -169.164 46.6172 8.91948 -10.6237 1.98785e-015 7.95139e-016 4.77083e-015 1.75258e-007 -2.91497e-008 1.67844e-006 2.18663e-015 -1.28058e-006 1.59028e-015 1.98785e-015 7.95139e-016 4.77083e-015 0.0129153 0.00231142 -8.47526e-005 -8.75658e-008 2.91283e-008 -8.39224e-007 1.98785e-015 7.95139e-016 4.77083e-015 0.0163817 0.00304323 -0.000877009 -1.23636e-006 7.08185e-007 -1.07282e-006 1.98785e-015 7.95139e-016 4.77083e-015 0.0146655 0.00370018 -0.00328402 -8.75414e-008 4.56331e-007 -8.39233e-007 1.98785e-015 7.95139e-016 4.77083e-015 1.75258e-007 -2.91497e-008 1.67844e-006 2.18663e-015 -1.28058e-006 1.59028e-015 52.2892 -73.6942 34.6911 -2.06243 36.9514 42.3229 -26.4649 -2.47377 -8.42223 8.43019e-007 -2.61137e-008 -6.67356e-008 48.8322 -79.9354 79.5889 2.04788 37.8029 -42.3215 24.8626 -2.89697 7.6085 1.56433e-006 1.32972e-007 -3.74435e-008 
